<svg width="20" height="20" viewBox="0 0 20 20" fill="none" xmlns="http://www.w3.org/2000/svg">
<path fill-rule="evenodd" clip-rule="evenodd" d="M11.9922 6.41874H15.0199C15.2415 6.41874 15.4261 6.23412 15.4261 6.01258C15.4261 5.90181 15.3891 5.82797 15.3153 5.7172L11.5491 1.98797C11.4384 1.91412 11.3645 1.8772 11.2538 1.8772C11.0322 1.8772 10.8476 2.06181 10.8476 2.28335V5.27412C10.8476 5.90181 11.3645 6.41874 11.9922 6.41874ZM18.6753 10.2587L18.343 9.92643C18.1215 9.70489 17.7891 9.70489 17.5307 9.92643L13.1368 14.3203C13.0999 14.3572 13.1368 14.3941 13.1368 14.431V15.3541C13.1368 15.428 13.1368 15.5018 13.2107 15.5018H14.1707C14.2076 15.5018 14.2445 15.4649 14.2815 15.4649L18.6753 11.108C18.9338 10.8126 18.9338 10.4803 18.6753 10.2587ZM15.1307 17.1634H12.5091C11.9184 17.1634 11.4384 16.6834 11.4384 16.0926V14.0987C11.4384 13.8034 11.5122 13.508 11.7707 13.3234L15.2784 9.81566C15.3891 9.70489 15.463 9.5572 15.463 9.4095V8.67104C15.463 8.37566 15.2045 8.1172 14.9091 8.1172H10.8476C9.88761 8.1172 9.14915 7.34181 9.14915 6.41874V2.43104C9.14915 2.13566 8.89069 1.8772 8.55838 1.8772H2.8353C1.91223 1.8772 1.13684 2.65258 1.13684 3.57566V17.1634C1.13684 18.0864 1.91223 18.8618 2.8353 18.8618H13.6907C14.503 18.8618 15.2415 18.271 15.3891 17.4957C15.4261 17.348 15.2784 17.1634 15.1307 17.1634ZM3.42607 6.97258C3.42607 6.6772 3.68453 6.41874 3.97992 6.41874H6.26915C6.60146 6.41874 6.82299 6.6772 6.82299 6.97258V7.52643C6.82299 7.82181 6.56453 8.08027 6.26915 8.08027H3.97992C3.64761 8.08027 3.42607 7.82181 3.42607 7.52643V6.97258ZM9.14915 14.3203C9.14915 14.6157 8.89069 14.8741 8.5953 14.8741H3.97992C3.64761 14.8741 3.42607 14.6157 3.42607 14.3203V13.7664C3.42607 13.471 3.68453 13.2126 3.97992 13.2126H8.55838C8.89069 13.2126 9.11223 13.471 9.11223 13.7664V14.3203H9.14915ZM10.2938 10.9234C10.2938 11.2187 10.0353 11.4772 9.73992 11.4772H3.97992C3.64761 11.4772 3.42607 11.2187 3.42607 10.9234V10.3695C3.42607 10.0741 3.68453 9.81566 3.97992 9.81566H9.70299C10.0353 9.81566 10.2568 10.0741 10.2568 10.3695V10.9234H10.2938Z" fill="#0B5CAB"/>
</svg>
